<?xml version="1.0" encoding="UTF-8"?>
<svg id="Layer_2" xmlns="http://www.w3.org/2000/svg" viewBox="0 0 666.67 666.67">
  <defs>
    <style>
      .cls-1 {
        fill: #fff;
        fill-rule: evenodd;
      }
    </style>
  </defs>
  <g id="Layer_1-2" data-name="Layer_1">
    <path class="cls-1" d="M666.67,209.78c0,115.86-94.31,209.78-210.64,209.78-21.23,0-69.56-4.88-93.07-24.39l-29.39,29.27c-17.28,17.21-12.61,22.28-4.93,30.62,3.21,3.48,6.94,7.54,9.83,13.28,0,0,24.49,34.15,0,68.3-14.7,19.51-55.85,46.83-102.87,0l-9.8,9.76s29.39,34.15,4.9,68.3c-14.7,19.52-53.88,39.03-88.18,4.88l-34.29,34.15c-23.51,23.42-52.25,9.76-63.68,0l-29.39-29.27c-27.43-27.32-11.43-56.92,0-68.3l254.73-253.69s-24.49-39.03-24.49-92.7C245.38,93.92,339.69,0,456.02,0s210.64,93.92,210.64,209.78ZM456.03,282.96c40.58,0,73.48-32.76,73.48-73.18s-32.9-73.18-73.48-73.18-73.48,32.76-73.48,73.18,32.9,73.18,73.48,73.18Z"/>
  </g>
</svg>